<?xml version="1.0" encoding="iso-8859-1"?>
<!-- Generator: Adobe Illustrator 16.0.0, SVG Export Plug-In . SVG Version: 6.00 Build 0)  -->
<!DOCTYPE svg PUBLIC "-//W3C//DTD SVG 1.1//EN" "http://www.w3.org/Graphics/SVG/1.1/DTD/svg11.dtd">
<svg version="1.1" xmlns="http://www.w3.org/2000/svg" xmlns:xlink="http://www.w3.org/1999/xlink" x="0px" y="0px" width="512px"
	 height="512px" fill="white" viewBox="0 0 512 512" style="enable-background:new 0 0 512 512;" xml:space="preserve">
<g id="Guides_For_Artboard">
</g>
<g id="_x30_">
</g>
<g id="_x31_">
</g>
<g id="_x32_">
</g>
<g id="_x33_">
</g>
<g id="_x34_">
</g>
<g id="_x35_">
</g>
<g id="_x36_">
</g>
<g id="_x37_">
</g>
<g id="_x38_">
</g>
<g id="_x39_">
</g>
<g id="_x31_0">
</g>
<g id="_x31_1">
</g>
<g id="_x31_2">
</g>
<g id="_x31_3">
</g>
<g id="_x31_4">
</g>
<g id="_x31_5">
</g>
<g id="_x31_6">
</g>
<g id="_x31_7">
</g>
<g id="_x31_8">
</g>
<g id="_x31_9">
</g>
<g id="_x32_0">
</g>
<g id="_x32_1">
</g>
<g id="_x32_2">
</g>
<g id="_x32_3">
</g>
<g id="_x32_4">
</g>
<g id="_x32_5">
</g>
<g id="_x32_6">
</g>
<g id="_x32_7">
</g>
<g id="_x32_8">
</g>
<g id="_x32_9">
</g>
<g id="_x33_0">
</g>
<g id="_x33_1">
</g>
<g id="_x33_2">
</g>
<g id="_x33_3">
	<g>
		<path d="M395.763,165.282l22.034-23.244c5.564-5.873,5.317-15.145-0.552-20.708l-17.719-16.796
			c-5.872-5.565-15.142-5.317-20.707,0.556l-24.81,26.17c-18.408-11.097-38.841-19.152-60.597-23.504V75.955h28.504
			c8.09,0,14.646-6.559,14.646-14.647v-34.18c0-8.091-6.557-14.647-14.646-14.647H196.189c-8.092,0-14.648,6.557-14.648,14.647
			v34.18c0,8.089,6.557,14.647,14.648,14.647h22.682v31.701h0.249c-21.52,4.241-41.752,12.101-60.022,22.948l-27.231-25.816
			c-5.872-5.564-15.143-5.318-20.708,0.555l-16.796,17.72c-5.563,5.869-5.317,15.142,0.555,20.707l21.965,20.82
			c-31.799,34.043-51.294,79.716-51.294,129.864c0,86.97,58.606,160.507,138.4,183.193v11.503c0,5.727,4.641,10.369,10.369,10.369
			h88.997c5.729,0,10.369-4.643,10.369-10.369v-13.235c76.86-24.507,132.688-96.582,132.688-181.461
			C446.412,244.646,427.18,199.25,395.763,165.282z M256,450.71c-86.158,0-156.254-70.096-156.254-156.256
			S169.842,138.197,256,138.197s156.254,70.097,156.254,156.257S342.158,450.71,256,450.71z"/>
		<path d="M333.974,241.739c-5.29-6.242-66.838,22.339-82.751,29.872c-1.127,0.438-2.187,0.968-3.234,1.549
			c-0.217,0.102-0.545,0.262-0.545,0.262l0.015,0.021c-7.637,4.441-12.832,12.622-12.832,22.105
			c0,14.176,11.487,25.666,25.664,25.666c5.662,0,10.844-1.891,15.086-4.986l0.028,0.044c0,0,0.226-0.232,0.321-0.334
			c2.354-1.787,4.418-3.924,6.046-6.4C297.882,292.329,338.857,247.523,333.974,241.739z"/>
		<path d="M269.69,396.618h-22.743c-0.27,0-0.487,0.219-0.487,0.488v32.876c0,0.27,0.218,0.488,0.487,0.488h22.743
			c0.27,0,0.488-0.219,0.488-0.488v-32.876C270.179,396.837,269.96,396.618,269.69,396.618z"/>
		<path d="M165.027,302.771v-22.242c0-0.27-0.218-0.488-0.487-0.488h-32.877c-0.27,0-0.488,0.219-0.488,0.488v22.242
			c0,0.27,0.219,0.488,0.488,0.488h32.877C164.81,303.26,165.027,303.041,165.027,302.771z"/>
		<path d="M246.918,186.507h22.743c0.27,0,0.488-0.219,0.488-0.488v-32.877c0-0.27-0.219-0.488-0.488-0.488h-22.743
			c-0.27,0-0.487,0.219-0.487,0.488v32.877C246.431,186.288,246.648,186.507,246.918,186.507z"/>
		<path d="M384.946,279.865h-32.877c-0.27,0-0.488,0.219-0.488,0.488v22.241c0,0.27,0.219,0.488,0.488,0.488h32.877
			c0.27,0,0.488-0.219,0.488-0.488v-22.241C385.435,280.084,385.216,279.865,384.946,279.865z"/>
		<path d="M169.786,359.859c-0.19-0.191-0.5-0.191-0.69,0l-23.619,23.619c-0.091,0.091-0.143,0.215-0.143,0.345
			s0.052,0.254,0.143,0.345l16.34,16.339c0.095,0.096,0.22,0.144,0.345,0.144s0.25-0.048,0.346-0.144l23.619-23.619
			c0.091-0.091,0.143-0.215,0.143-0.345s-0.052-0.254-0.143-0.345L169.786,359.859z"/>
		<path d="M170.715,193.286c-0.19-0.191-0.5-0.191-0.69,0l-15.979,15.979c-0.091,0.091-0.143,0.215-0.143,0.345
			s0.052,0.254,0.143,0.345l23.619,23.619c0.095,0.096,0.22,0.144,0.345,0.144s0.25-0.048,0.346-0.144l15.979-15.979
			c0.091-0.091,0.143-0.215,0.143-0.345s-0.052-0.254-0.143-0.345L170.715,193.286z"/>
		<path d="M337.063,225.217c0.095,0.096,0.22,0.144,0.345,0.144s0.25-0.048,0.345-0.144l23.619-23.619
			c0.092-0.091,0.144-0.215,0.144-0.345s-0.052-0.254-0.144-0.345l-16.34-16.339c-0.189-0.191-0.5-0.191-0.689,0l-23.619,23.619
			c-0.092,0.091-0.144,0.215-0.144,0.345s0.052,0.254,0.144,0.345L337.063,225.217z"/>
		<path d="M329.185,351.503c-0.189-0.191-0.5-0.191-0.689,0l-15.979,15.979c-0.19,0.19-0.19,0.499,0,0.689l23.619,23.619
			c0.095,0.096,0.22,0.144,0.345,0.144s0.25-0.048,0.345-0.144l15.979-15.979c0.19-0.19,0.19-0.499,0-0.689L329.185,351.503z"/>
	</g>
</g>
<g id="_x33_4">
</g>
<g id="_x33_5">
</g>
<g id="_x33_6">
</g>
<g id="_x33_7">
</g>
<g id="_x33_8">
</g>
<g id="_x33_9">
</g>
<g id="_x34_0">
</g>
<g id="_x34_1">
</g>
<g id="_x34_2">
</g>
<g id="_x34_3">
</g>
<g id="_x34_4">
</g>
<g id="_x34_5">
</g>
<g id="_x34_6">
</g>
<g id="_x34_7">
</g>
<g id="_x34_8">
</g>
<g id="_x34_9">
</g>
<g id="_x35_0">
</g>
<g id="_x35_1">
</g>
<g id="_x35_2">
</g>
<g id="_x35_3">
</g>
<g id="_x35_4">
</g>
<g id="_x35_5">
</g>
<g id="_x35_6">
</g>
<g id="_x35_7">
</g>
<g id="_x35_8">
</g>
<g id="_x35_9">
</g>
<g id="_x36_0">
</g>
<g id="_x36_1">
</g>
<g id="_x36_2">
</g>
<g id="_x36_3">
</g>
<g id="_x36_4">
</g>
<g id="_x36_5">
</g>
<g id="_x36_6">
</g>
<g id="_x36_7">
</g>
<g id="_x36_8">
</g>
<g id="_x36_9">
</g>
<g id="_x37_0">
</g>
</svg>
