<?xml version="1.0" encoding="iso-8859-1"?>
<!-- Generator: Adobe Illustrator 16.0.0, SVG Export Plug-In . SVG Version: 6.00 Build 0)  -->
<!DOCTYPE svg PUBLIC "-//W3C//DTD SVG 1.1//EN" "http://www.w3.org/Graphics/SVG/1.1/DTD/svg11.dtd">
<svg version="1.1" xmlns="http://www.w3.org/2000/svg" xmlns:xlink="http://www.w3.org/1999/xlink" x="0px" y="0px" width="512px"
	 height="512px" fill="white" viewBox="0 0 512 512" style="enable-background:new 0 0 512 512;" xml:space="preserve">
<g id="Guides_For_Artboard">
</g>
<g id="_x30_">
</g>
<g id="_x31_">
</g>
<g id="_x32_">
</g>
<g id="_x33_">
</g>
<g id="_x34_">
</g>
<g id="_x35_">
	<g>
		<path d="M69.362,134.011c-15.547,0-28.159,12.608-28.159,28.161v56.673c-15.653,3.846-27.306,17.866-27.306,34.703
			c0,16.841,11.652,30.86,27.306,34.706v56.666c0,15.555,12.612,28.161,28.159,28.161c15.546,0,28.16-12.606,28.16-28.161V162.172
			C97.522,146.62,84.908,134.011,69.362,134.011z"/>
		<path d="M348.395,76.061c-23.091,0-41.811,18.719-41.811,41.812v93.864h-12.801h-60.585h-19.625l-6.827-0.163v-93.701
			c0-23.092-18.72-41.812-41.813-41.812c-23.091,0-41.812,18.719-41.812,41.812v271.355c0,23.092,18.721,41.811,41.812,41.811
			c23.094,0,41.813-18.719,41.813-41.811v-93.654c0,0,4.501-0.211,6.827-0.211h19.625h60.585h12.801v93.865
			c0,23.092,18.72,41.811,41.811,41.811c23.094,0,41.813-18.719,41.813-41.811V117.872C390.208,94.78,371.488,76.061,348.395,76.061
			z"/>
		<path d="M472.125,218.845v-56.673c0-15.552-12.613-28.161-28.158-28.161c-15.547,0-28.159,12.608-28.159,28.161V344.92
			c0,15.555,12.612,28.161,28.159,28.161c15.545,0,28.158-12.606,28.158-28.161v-56.666c15.654-3.846,27.308-17.865,27.308-34.706
			C499.433,236.71,487.779,222.691,472.125,218.845z"/>
	</g>
</g>
<g id="_x36_">
</g>
<g id="_x37_">
</g>
<g id="_x38_">
</g>
<g id="_x39_">
</g>
<g id="_x31_0">
</g>
<g id="_x31_1">
</g>
<g id="_x31_2">
</g>
<g id="_x31_3">
</g>
<g id="_x31_4">
</g>
<g id="_x31_5">
</g>
<g id="_x31_6">
</g>
<g id="_x31_7">
</g>
<g id="_x31_8">
</g>
<g id="_x31_9">
</g>
<g id="_x32_0">
</g>
<g id="_x32_1">
</g>
<g id="_x32_2">
</g>
<g id="_x32_3">
</g>
<g id="_x32_4">
</g>
<g id="_x32_5">
</g>
<g id="_x32_6">
</g>
<g id="_x32_7">
</g>
<g id="_x32_8">
</g>
<g id="_x32_9">
</g>
<g id="_x33_0">
</g>
<g id="_x33_1">
</g>
<g id="_x33_2">
</g>
<g id="_x33_3">
</g>
<g id="_x33_4">
</g>
<g id="_x33_5">
</g>
<g id="_x33_6">
</g>
<g id="_x33_7">
</g>
<g id="_x33_8">
</g>
<g id="_x33_9">
</g>
<g id="_x34_0">
</g>
<g id="_x34_1">
</g>
<g id="_x34_2">
</g>
<g id="_x34_3">
</g>
<g id="_x34_4">
</g>
<g id="_x34_5">
</g>
<g id="_x34_6">
</g>
<g id="_x34_7">
</g>
<g id="_x34_8">
</g>
<g id="_x34_9">
</g>
<g id="_x35_0">
</g>
<g id="_x35_1">
</g>
<g id="_x35_2">
</g>
<g id="_x35_3">
</g>
<g id="_x35_4">
</g>
<g id="_x35_5">
</g>
<g id="_x35_6">
</g>
<g id="_x35_7">
</g>
<g id="_x35_8">
</g>
<g id="_x35_9">
</g>
<g id="_x36_0">
</g>
<g id="_x36_1">
</g>
<g id="_x36_2">
</g>
<g id="_x36_3">
</g>
<g id="_x36_4">
</g>
<g id="_x36_5">
</g>
<g id="_x36_6">
</g>
<g id="_x36_7">
</g>
<g id="_x36_8">
</g>
<g id="_x36_9">
</g>
<g id="_x37_0">
</g>
</svg>
