<?xml version="1.0" encoding="UTF-8" standalone="no"?>
<svg
   xmlns:dc="http://purl.org/dc/elements/1.1/"
   xmlns:cc="http://creativecommons.org/ns#"
   xmlns:rdf="http://www.w3.org/1999/02/22-rdf-syntax-ns#"
   xmlns:svg="http://www.w3.org/2000/svg"
   xmlns="http://www.w3.org/2000/svg"
   xmlns:sodipodi="http://sodipodi.sourceforge.net/DTD/sodipodi-0.dtd"
   xmlns:inkscape="http://www.inkscape.org/namespaces/inkscape"
   version="1.1"
   id="svg2"
   height="44"
   width="136"
   inkscape:version="0.91 r13725"
   sodipodi:docname="greyStars.svg">
  <sodipodi:namedview
     pagecolor="#ffffff"
     bordercolor="#666666"
     borderopacity="1"
     objecttolerance="10"
     gridtolerance="10"
     guidetolerance="10"
     inkscape:pageopacity="0"
     inkscape:pageshadow="2"
     inkscape:window-width="1440"
     inkscape:window-height="837"
     id="namedview174"
     showgrid="false"
     inkscape:zoom="3.0260011"
     inkscape:cx="22.663388"
     inkscape:cy="58.201032"
     inkscape:window-x="1912"
     inkscape:window-y="-8"
     inkscape:window-maximized="1"
     inkscape:current-layer="g6604" />
  <defs
     id="defs4">
    <clipPath
       clipPathUnits="userSpaceOnUse"
       id="clipPath3197">
      <path
         d="m 0,133.035 145.167,0 L 145.167,0 0,0 0,133.035 Z"
         id="path3199" />
    </clipPath>
    <clipPath
       clipPathUnits="userSpaceOnUse"
       id="clipPath3105">
      <path
         d="m 0,133.035 145.167,0 L 145.167,0 0,0 0,133.035 Z"
         id="path3107" />
    </clipPath>
    <clipPath
       clipPathUnits="userSpaceOnUse"
       id="clipPath2999">
      <path
         d="m 0,133.035 145.167,0 L 145.167,0 0,0 0,133.035 Z"
         id="path3001" />
    </clipPath>
    <clipPath
       clipPathUnits="userSpaceOnUse"
       id="clipPath3197-0">
      <path
         d="m 0,133.035 145.167,0 L 145.167,0 0,0 0,133.035 Z"
         id="path3199-6" />
    </clipPath>
    <clipPath
       clipPathUnits="userSpaceOnUse"
       id="clipPath3197-0-0">
      <path
         d="m 0,133.035 145.167,0 L 145.167,0 0,0 0,133.035 Z"
         id="path3199-6-3" />
    </clipPath>
    <clipPath
       clipPathUnits="userSpaceOnUse"
       id="clipPath3197-0-0-6">
      <path
         d="m 0,133.035 145.167,0 L 145.167,0 0,0 0,133.035 Z"
         id="path3199-6-3-0" />
    </clipPath>
    <clipPath
       clipPathUnits="userSpaceOnUse"
       id="clipPath3197-0-0-6-9">
      <path
         d="m 0,133.035 145.167,0 L 145.167,0 0,0 0,133.035 Z"
         id="path3199-6-3-0-9" />
    </clipPath>
    <clipPath
       clipPathUnits="userSpaceOnUse"
       id="clipPath3197-0-0-6-9-3">
      <path
         d="m 0,133.035 145.167,0 L 145.167,0 0,0 0,133.035 Z"
         id="path3199-6-3-0-9-7" />
    </clipPath>
  </defs>
  <metadata
     id="metadata7">
    <rdf:RDF>
      <cc:Work
         rdf:about="">
        <dc:format>image/svg+xml</dc:format>
        <dc:type
           rdf:resource="http://purl.org/dc/dcmitype/StillImage" />
        <dc:title></dc:title>
      </cc:Work>
    </rdf:RDF>
  </metadata>
  <g
     transform="translate(-0.46735395,-1011.1643)"
     id="layer1">
    <g
       id="g2993"
       transform="matrix(1.25,0,0,-1.25,214.31559,641.13368)">
      <g
         transform="translate(296.05357,-384.5)"
         id="g3101" />
      <g
         transform="matrix(0.55073616,0,0,-0.55073616,-188.89242,112.9739)"
         id="layer1-7">
        <g
           id="layer2"
           style="display:inline" />
        <g
           transform="matrix(1.4526012,0,0,1.4526012,6.8423459,-620.5961)"
           id="layer1-3">
          <g
             transform="matrix(0.93541807,0,0,0.93541807,0.47237331,63.668462)"
             id="g6604">
            <path
               id="path3233"
               d="m 35.331516,938.1313 -3.422348,12.87104 -13.243062,-3.57115 9.671889,9.59751 -9.076695,9.2999 12.573468,-3.27355 3.496748,13.01984 3.496769,-13.09424 12.945456,3.49676 -9.299898,-9.3743 9.299898,-9.59749 -12.945456,3.42236 z"
               style="fill:#ffffff;fill-opacity:1;stroke:none"
               inkscape:connector-curvature="0" />
            <path
               id="path3233-9"
               d="m 73.270639,938.51683 -3.422348,12.87105 -13.243063,-3.57116 9.671889,9.59751 -9.076695,9.2999 12.573467,-3.27354 3.49675,13.01984 3.49677,-13.09426 12.945457,3.49676 -9.2999,-9.37428 9.2999,-9.5975 -12.945457,3.42236 z"
               style="fill:#ffffff;fill-opacity:1;stroke:none"
               inkscape:connector-curvature="0" />
            <path
               id="path3233-9-4"
               d="m 110.33236,938.83909 -3.42237,12.87106 -13.243056,-3.57116 9.671886,9.59751 -9.076694,9.2999 12.573474,-3.27354 3.49676,13.01984 3.49676,-13.09427 12.94545,3.49678 -9.2999,-9.37428 9.2999,-9.59751 -12.94545,3.42235 z"
               style="fill:#ffffff;fill-opacity:1;stroke:none"
               inkscape:connector-curvature="0" />
            <path
               id="path3233-9-4-3"
               d="m 146.10497,938.8391 -3.42236,12.87106 -13.24308,-3.57114 9.67191,9.59749 -9.07672,9.2999 12.57348,-3.27354 3.49677,13.01984 3.49676,-13.09426 12.94546,3.49676 -9.2999,-9.37428 9.2999,-9.5975 -12.94546,3.42236 z"
               style="fill:#ffffff;fill-opacity:1;stroke:none"
               inkscape:connector-curvature="0" />
          </g>
        </g>
      </g>
    </g>
  </g>
</svg>
