<?xml version="1.0" encoding="UTF-8" standalone="no"?>
<!-- Generator: Adobe Illustrator 12.0.0, SVG Export Plug-In . SVG Version: 6.00 Build 51448)  -->

<svg
   xmlns:dc="http://purl.org/dc/elements/1.1/"
   xmlns:cc="http://creativecommons.org/ns#"
   xmlns:rdf="http://www.w3.org/1999/02/22-rdf-syntax-ns#"
   xmlns:svg="http://www.w3.org/2000/svg"
   xmlns="http://www.w3.org/2000/svg"
   xmlns:sodipodi="http://sodipodi.sourceforge.net/DTD/sodipodi-0.dtd"
   xmlns:inkscape="http://www.inkscape.org/namespaces/inkscape"
   version="1.1"
   id="svg2"
   inkscape:version="0.91 r13725"
   sodipodi:docname="iconSmall.svg"
   width="160.333"
   height="60.667"
   viewBox="-56.833 -7.167 160.333 60.667"
   overflow="visible"
   enable-background="new -56.833 -7.167 160.333 60.667"
   xml:space="preserve"><metadata
     id="metadata4755"><rdf:RDF><cc:Work
         rdf:about=""><dc:format>image/svg+xml</dc:format><dc:type
           rdf:resource="http://purl.org/dc/dcmitype/StillImage" /><dc:title></dc:title></cc:Work></rdf:RDF></metadata><defs
     id="defs4753" /><sodipodi:namedview
     inkscape:cy="41.147579"
     guidetolerance="10"
     inkscape:window-maximized="1"
     showgrid="false"
     bordercolor="#666666"
     borderopacity="1"
     inkscape:zoom="4.7906484"
     inkscape:cx="49.71717"
     gridtolerance="10"
     pagecolor="#ffffff"
     id="namedview7002"
     objecttolerance="10"
     inkscape:pageopacity="0"
     inkscape:pageshadow="2"
     inkscape:window-width="1440"
     inkscape:window-x="1912"
     inkscape:window-y="-8"
     inkscape:current-layer="g5410"
     inkscape:window-height="837" /><g
     id="layer1"
     transform="translate(0,-993.362)"><g
       id="layer2"><rect
         id="rect5095"
         x="-54.077"
         y="989.68"
         width="154.272"
         height="53.5"
         fill="#FFFFFF" /></g><g
       id="g5410"
       transform="matrix(0.2840619,0,0,0.2840619,-33.679366,888.83655)"><rect
         id="rect2996"
         x="-78.518"
         y="347.974"
         width="13.413"
         height="201.656"
         stroke-width="0.8775"
         stroke="#3E3D3B"
         fill="#3E3D3B" /><rect
         id="rect2996-5"
         x="-64.873459"
         y="348.15759"
         width="534.28174"
         height="13.467033"
         style="fill:#3e3d3b;stroke:#3e3d3b;stroke-width:1.43116617" /><rect
         id="rect2996-5-0"
         x="-65.08"
         y="534.937"
         width="531.168"
         height="13.469"
         stroke-width="1.4272"
         stroke="#3E3D3B"
         fill="#3E3D3B" /><rect
         id="rect2996-7"
         x="465.281"
         y="347.94"
         width="13.411"
         height="201.652"
         stroke-width="0.8775"
         stroke="#3E3D3B"
         fill="#3E3D3B" /><rect
         id="rect2996-6"
         x="-43.433"
         y="442.359"
         width="18.851"
         height="73.787"
         fill="#3E3D3B" /><rect
         id="rect2996-6-6"
         x="-36.047"
         y="442.197"
         width="35.585"
         height="15.209"
         fill="#3E3D3B" /><rect
         id="rect2996-6-6-9-2"
         x="-36.047"
         y="473.482"
         width="35.585"
         height="15.206"
         fill="#3E3D3B" /><rect
         id="rect2996-6-2"
         x="11.461"
         y="442.354"
         width="18.367"
         height="73.795"
         fill="#3E3D3B" /><rect
         id="rect2996-6-2-7"
         x="54.817"
         y="443.832"
         width="18.613"
         height="72.85"
         fill="#3E3D3B" /><rect
         id="rect2996-6-2-7-0"
         x="38.075"
         y="442.335"
         width="52.097"
         height="15.47"
         fill="#3E3D3B" /><rect
         id="rect2996-6-2-7-6"
         x="96.635"
         y="442.08"
         width="19.058"
         height="74.588"
         fill="#3E3D3B" /><rect
         id="rect2996-6-2-7-6-7"
         x="146.974"
         y="442.08"
         width="19.058"
         height="74.588"
         fill="#3E3D3B" /><rect
         id="rect2996-6-2-7-6-7-5"
         x="96.994"
         y="471.99"
         width="68.678"
         height="13.72"
         fill="#3E3D3B" /><rect
         id="rect2996-6-4"
         x="398.432"
         y="442.395"
         width="18.368"
         height="73.792"
         fill="#3E3D3B" /><rect
         id="rect2996-6-6-7"
         x="403.626"
         y="442.221"
         width="34.678"
         height="15.09"
         fill="#3E3D3B" /><rect
         id="rect2996-6-6-9-2-1"
         x="402.344"
         y="473.365"
         width="34.684"
         height="14.824"
         fill="#3E3D3B" /><rect
         id="rect2996-6-6-9-2-1-7"
         x="403.589"
         y="501.359"
         width="34.684"
         height="14.824"
         fill="#3E3D3B" /><rect
         id="rect2996-6-6-7-0"
         x="261.85001"
         y="441.853"
         width="19.572519"
         height="44.203999"
         style="fill:#3e3d3b" /><rect
         id="rect2996-6-6-7-0-5"
         x="304.94547"
         y="442.16299"
         width="19.60652"
         height="44.203999"
         style="fill:#3e3d3b" /><g
         id="flowRoot4135"
         transform="matrix(1.6221808,0,0,1.6036887,1119.5105,-301.39164)"><path
           id="path5541"
           d="M-604.507,433.851l1.68-7.96c1.841,0.4,3.761,0.76,5.6,0.76c3.12-0.68,3.24-3.12,3.8-4.8     c-1.12,0.36-2.36,0.48-3.6,0.48c-2.52,0-5.041-0.48-6.64-0.48c-9.88,0-13.641,5.08-13.641,10.4c0,2.88,1.521,3.88,4.28,3.88     c-0.039-0.36-0.56-0.681-0.56-2.72c0-6.4,2.12-8.16,5.2-8.28l-5.76,26.72h5.76l3.24-15.04h5.84l0.64-2.96H-604.507"
           fill="#3E3D3B" /><path
           id="path5543"
           d="M-586.708,431.851l-2.719,12.841c-0.601,2-1.64,3.52-3.2,3.52     c-0.881,0-1.201-0.72-1.201-1.64c0-0.36,0.04-0.72,0.12-1.12l2.88-13.601h-5.76l-2.719,12.841c-0.2,0.959-0.32,1.839-0.32,2.599     c0,3.36,1.88,4.801,4.28,4.801c1.68,0,3.92-0.521,5.919-3.801c0.241,2.48,1.681,3.801,3.961,3.801c2.16,0,5.759-0.881,8.039-7.4     h-1.68c-0.601,2-1.681,3.52-3.24,3.52c-1.12,0-1.64-0.36-1.64-1.48c0-0.36,0.04-0.76,0.16-1.28l2.88-13.601H-586.708"
           fill="#3E3D3B" /><path
           id="path5545"
           d="M-574.793,424.651l-4.28,20.04c-0.2,0.959-0.32,1.839-0.32,2.599     c0,3.36,1.88,4.801,4.28,4.801c2.161,0,6.12-0.88,8.4-7.4h-1.68c-0.6,2-2.04,3.52-3.6,3.52c-1.12,0-1.64-0.36-1.64-1.48     c0-0.36,0.04-0.76,0.16-1.28l4.6-21.6L-574.793,424.651"
           fill="#3E3D3B" /><path
           id="path5547"
           d="M-564.45,426.331l-1.2,5.52h-1.32l-0.32,1.6h1.32l-2.4,11.241     c-0.2,0.959-0.32,1.839-0.32,2.599c0,3.36,1.88,4.801,4.28,4.801c2.16,0,6.12-0.881,8.399-7.4h-1.678     c-0.6,2-2.039,3.52-3.601,3.52c-1.12,0-1.639-0.36-1.639-1.48c0-0.36,0.039-0.76,0.16-1.28l2.56-12.001h2.401l0.318-1.6h-2.399     l1.361-6.32L-564.45,426.331"
           fill="#3E3D3B" /><path
           id="path5549"
           d="M-547.267,431.491c-8.24,0-10.961,9.6-10.961,14.2c0,4.56,2.681,6.32,6.4,6.32     c4.921,0,8.922-4.64,9.562-12.04c2.918-0.48,5.559-1.68,7.078-3.32l-0.36-1.08c-1.721,1.2-4.319,2.4-6.159,2.4     c-0.121,0-0.28,0-0.441-0.079C-542.147,433.691-543.825,431.491-547.267,431.491 M-550.225,448.411     c-1.522,0-2.041-0.6-2.041-3.239c0-3.921,2.48-11.241,5.319-11.241c1.041,0,1.439,0.64,1.52,2.321     c-0.721,0.319-1.24,1.04-1.24,2.16c0,0.8,0.24,1.48,1.081,1.68C-546.226,444.811-548.267,448.411-550.225,448.411"
           fill="#3E3D3B" /><path
           id="path5551"
           d="M-528.569,437.371c0,2.561-1.799,7.48-1.799,10.201c0,2.28,0.958,4.52,4.039,4.52     c2.119,0,4.039-1.24,4.4-4.12c-0.24,0.16-0.64,0.24-1.318,0.24c-1.202,0-1.602-0.681-1.602-1.681c0-2.24,1.92-7.08,1.92-10.32     c0-3.199-1.88-4.52-4.44-4.52c-1.24,0-2.999,0.32-4.679,2.24l0.439-2.08h-5.76l-4.239,20.001h5.76l2.721-12.841     c0.598-2,1.678-3.68,3.12-3.68C-529.05,435.331-528.569,436.051-528.569,437.371"
           fill="#3E3D3B" /></g><g
         id="g5448"
         transform="matrix(0.97726281,0,0,0.97726281,-10.798352,-199.25394)"><path
           id="path5280-4-1"
           stroke-miterlimit="4.8"
           d="M201.393,695.43     c0-16.288,13.306-29.494,29.72-29.494c16.411,0.002,29.719,13.206,29.715,29.494c0,16.288-13.304,29.494-29.719,29.494     c-16.349,0-29.629-13.107-29.717-29.335"
           stroke-width="21"
           stroke="#3E3D3B"
           fill-opacity="0" /></g><path
         id="path5370"
         stroke-miterlimit="4.8"
         d="    M315.841,485.61c0,11.984-10.128,21.7-22.628,21.7c-12.5,0-22.635-9.715-22.635-21.7c0-0.117,0-0.241,0.003-0.358"
         stroke-width="21"
         stroke="#3E3D3B"
         fill-opacity="0"
         fill="#FF0000" /><path
         id="path5372-1"
         stroke-miterlimit="4.8"
         d="    M360.292,479.415c9.794,0.777,17.451,7.976,17.096,16.082c-0.351,8.103-8.574,14.04-18.368,13.263    c-6.614-0.529-12.548-4.057-15.388-9.158"
         stroke-width="21"
         stroke="#3E3D3B"
         fill-opacity="0"
         fill="#FF0000" /><path
         id="path5372-1-6"
         stroke-miterlimit="4.8"
         d="    M360.877,479.309c-9.794-0.495-17.76-7.491-17.791-15.622c-0.031-8.132,7.883-14.324,17.674-13.829    c6.865,0.345,13.126,3.952,16.075,9.253"
         stroke-width="21"
         stroke="#3E3D3B"
         fill-opacity="0"
         fill="#FF0000" /><path
         id="path5953"
         d="M337.716,376.828l-12.957,13.911l-5.721-7.431l16.199-9.339L337.716,376.828z"
         fill="#FFFFFF" /><path
         id="path5971"
         d="M342.175,506.781c-0.564-0.612-1.499-1.977-1.939-2.84l-0.309-0.598l6.401-3.555    c3.524-1.956,6.436-3.527,6.473-3.486c0.058,0.055-7.91,8.739-9.619,10.479l-0.519,0.529L342.175,506.781L342.175,506.781    L342.175,506.781z"
         fill-opacity="0" /><path
         id="path5973"
         d="M-80.847,340.64"
         fill-opacity="0" /><path
         id="path5953-3"
         d="M376.34,385.856l12.961-13.911l5.717,7.433l-16.199,9.337L376.34,385.856z"
         fill="#FFFFFF" /><rect
         id="rect5993"
         x="324.501"
         y="441.065"
         width="8.086"
         height="56.331"
         fill="#FFFFFF" /><rect
         id="rect5993-1"
         x="256.583"
         y="440.123"
         width="5.119"
         height="56.327"
         fill="#FFFFFF" /><rect
         id="rect5993-2"
         x="282.43237"
         y="431.22699"
         width="22.077122"
         height="56.328999"
         style="fill:#ffffff" /></g></g><rect
     x="-57.166"
     y="-7.166"
     width="160"
     height="60"
     id="rect4751"
     fill="none" /></svg>