<?xml version="1.0" encoding="utf-8"?>
<!-- Generator: Adobe Illustrator 12.0.0, SVG Export Plug-In . SVG Version: 6.00 Build 51448)  -->
<!DOCTYPE svg PUBLIC "-//W3C//DTD SVG 1.1//EN" "http://www.w3.org/Graphics/SVG/1.1/DTD/svg11.dtd" [
	<!ENTITY ns_svg "http://www.w3.org/2000/svg">
	<!ENTITY ns_xlink "http://www.w3.org/1999/xlink">
]>
<svg  version="1.1" xmlns="&ns_svg;" xmlns:xlink="&ns_xlink;" width="534" height="205" viewBox="-196 -104 534 205"
	 overflow="visible" enable-background="new -196 -104 534 205" xml:space="preserve">
<g id="Layer_2">
</g>
<g id="svg2" xmlns:rdf="http://www.w3.org/1999/02/22-rdf-syntax-ns#" xmlns:inkscape="http://www.inkscape.org/namespaces/inkscape" xmlns:dc="http://purl.org/dc/elements/1.1/" xmlns:sodipodi="http://sodipodi.sourceforge.net/DTD/sodipodi-0.dtd" xmlns:cc="http://creativecommons.org/ns#" xmlns:svg="http://www.w3.org/2000/svg" sodipodi:docname="icon.svg" inkscape:version="0.91 r13725">
	
		<sodipodi:namedview  guidetolerance="10" showgrid="false" pagecolor="#888888" inkscape:window-maximized="1" inkscape:cx="395.45178" borderopacity="1" bordercolor="#666666" gridtolerance="10" inkscape:cy="56.530184" inkscape:zoom="1.1338813" id="namedview7198" inkscape:window-x="1912" inkscape:window-width="1440" inkscape:window-height="837" inkscape:window-y="-8" inkscape:pageopacity="0" objecttolerance="10" inkscape:pageshadow="2" inkscape:current-layer="svg2">
		</sodipodi:namedview>
	<g id="g4232" transform="translate(-7.8932899e-6,0.88192683)">
		<g id="layer1" transform="matrix(0.6884202,0,0,0.6884202,11.134771,-299.37276)">
			<g id="layer2">
			</g>
			<g id="g5410" transform="matrix(1.1981758,0,0,1.1981758,-54.579898,56.4496)">
				
					<rect id="rect2996" x="-194.943" y="203.916" fill="#FFFFFF" stroke="#FFFFFF" stroke-width="0.8775" width="15.09" height="226.872"/>
				
					<rect id="rect2996-5" x="-180.059" y="204.201" fill="#FFFFFF" stroke="#FFFFFF" stroke-width="1.4272" width="597.595" height="15.155"/>
				
					<rect id="rect2996-5-0" x="-180.32" y="415.248" fill="#FFFFFF" stroke="#FFFFFF" stroke-width="1.4272" width="597.594" height="15.155"/>
				
					<rect id="rect2996-7" x="416.862" y="203.878" fill="#FFFFFF" stroke="#FFFFFF" stroke-width="0.8775" width="15.089" height="226.871"/>
				
					<rect id="rect2996-6" x="-155.471" y="310.103" fill="#FFFFFF" stroke="#FFFFFF" stroke-width="0.6293" width="21.21" height="83.015"/>
				
					<rect id="rect2996-6-6" x="-147.161" y="309.922" fill="#FFFFFF" stroke="#FFFFFF" stroke-width="0.3925" width="40.036" height="17.114"/>
				
					<rect id="rect2996-6-6-9-2" x="-147.161" y="345.113" fill="#FFFFFF" stroke="#FFFFFF" stroke-width="0.3925" width="40.036" height="17.114"/>
				
					<rect id="rect2996-6-2" x="-93.712" y="310.099" fill="#FFFFFF" stroke="#FFFFFF" stroke-width="0.6212" width="20.663" height="83.024"/>
				
					<rect id="rect2996-6-2-7" x="-44.934" y="311.762" fill="#FFFFFF" stroke="#FFFFFF" stroke-width="0.6213" width="20.94" height="81.962"/>
				
					<rect id="rect2996-6-2-7-0" x="-63.769" y="310.075" fill="#FFFFFF" stroke="#FFFFFF" stroke-width="0.479" width="58.611" height="17.41"/>
				
					<rect id="rect2996-6-2-7-6" x="2.114" y="309.79" fill="#FFFFFF" stroke="#FFFFFF" stroke-width="0.6361" width="21.44" height="83.918"/>
				
					<rect id="rect2996-6-2-7-6-7" x="58.749" y="309.79" fill="#FFFFFF" stroke="#FFFFFF" stroke-width="0.6361" width="21.44" height="83.918"/>
				
					<rect id="rect2996-6-2-7-6-7-5" x="2.518" y="343.439" fill="#FFFFFF" stroke="#FFFFFF" stroke-width="0.5179" width="77.267" height="15.436"/>
				
					<rect id="rect2996-6-4" x="341.652" y="310.142" fill="#FFFFFF" stroke="#FFFFFF" stroke-width="0.6212" width="20.665" height="83.025"/>
				
					<rect id="rect2996-6-6-7" x="347.496" y="309.95" fill="#FFFFFF" stroke="#FFFFFF" stroke-width="0.386" width="39.015" height="16.974"/>
				
					<rect id="rect2996-6-6-9-2-1" x="346.058" y="344.993" fill="#FFFFFF" stroke="#FFFFFF" stroke-width="0.3826" width="39.022" height="16.672"/>
				
					<rect id="rect2996-6-6-9-2-1-7" x="347.457" y="376.481" fill="#FFFFFF" stroke="#FFFFFF" stroke-width="0.3826" width="39.018" height="16.679"/>
				
					<rect id="rect2996-6-6-7-0" x="188.294" y="312.87" fill="#FFFFFF" stroke="#FFFFFF" stroke-width="0.4697" width="19.729" height="49.73"/>
				
					<rect id="rect2996-6-6-7-0-5" x="239.372" y="313.559" fill="#FFFFFF" stroke="#FFFFFF" stroke-width="0.4679" width="20.18" height="49.738"/>
				<g id="g5448" transform="matrix(0.97726281,0,0,0.97726281,-10.798352,-199.25394)">
					
						<path id="path5280-4-1" inkscape:connector-curvature="0" fill-opacity="0" stroke="#3E3D3B" stroke-width="0.1696" stroke-miterlimit="4.8" d="
						M116.11,563.946c0.002-18.327,14.972-33.177,33.437-33.177c18.467,0,33.437,14.858,33.437,33.185
						c-0.002,18.32-14.97,33.177-33.439,33.177c-18.393,0-33.334-14.749-33.433-33.005"/>
					
						<path id="path5280-4-1-6" inkscape:connector-curvature="0" fill-opacity="0" stroke="#3E3D3B" stroke-width="0.1696" stroke-miterlimit="4.8" d="
						M181.857,563.774c0,18.322-14.971,33.181-33.432,33.177c-18.47,0-33.441-14.858-33.441-33.177
						c0.002-18.33,14.972-33.185,33.441-33.185c18.395,0,33.333,14.749,33.432,33.002"/>
				</g>
				
					<path id="path5370" inkscape:connector-curvature="0" fill="none" stroke="#FFFFFF" stroke-width="20" stroke-miterlimit="4.8" d="
					M249.342,362.706c0,13.484-11.399,24.414-25.464,24.414c-14.059,0-25.459-10.93-25.459-24.414c0-0.136,0-0.269,0.002-0.401"/>
				
					<path id="path5372-1" inkscape:connector-curvature="0" fill="none" stroke="#FFFFFF" stroke-width="18" stroke-miterlimit="4.8" d="
					M298.745,351.795c11.016,0.87,19.628,8.974,19.234,18.092c-0.395,9.116-9.645,15.796-20.665,14.921
					c-7.443-0.592-14.118-4.562-17.31-10.298"/>
				<path id="path5971" inkscape:connector-curvature="0" fill-opacity="0" d="M278.359,382.583c-0.631-0.684-1.68-2.223-2.18-3.199
					l-0.35-0.672l7.208-3.997c3.959-2.202,7.236-3.964,7.279-3.921c0.064,0.06-8.901,9.831-10.823,11.791l-0.583,0.592l-0.551-0.592
					l0,0l0,0V382.583z"/>
				<path id="path5973" inkscape:connector-curvature="0" fill-opacity="0" d="M-197.563,195.665"/>
				
					<circle id="path4193" fill="none" stroke="#FFFFFF" stroke-width="18.5116" stroke-miterlimit="4.8" cx="135.009" cy="351.488" r="35.447"/>
				
					<path id="path5372-1-7" inkscape:connector-curvature="0" fill="none" stroke="#FFFFFF" stroke-width="18" stroke-miterlimit="4.8" d="
					M312.473,326.408c-6.477-8.039-18.072-10.812-25.89-6.194c-7.819,4.616-8.903,14.873-2.423,22.911
					c4.378,5.431,11.333,8.672,18.035,8.407"/>
				
					<line id="rect4215_4_" fill="#FFFFFF" stroke="#FFFFFF" stroke-width="4.6646" stroke-miterlimit="4.8" x1="189.982" y1="356.92" x2="189.982" y2="356.826"/>
				
					<line id="rect4215_2_" fill="#FFFFFF" stroke="#FFFFFF" stroke-width="4.6646" stroke-miterlimit="4.8" x1="205.198" y1="356.826" x2="205.198" y2="356.92"/>
				
					<line id="rect4215-8_4_" fill="#FFFFFF" stroke="#FFFFFF" stroke-width="4.6599" stroke-miterlimit="4.8" x1="241.202" y1="358.435" x2="241.202" y2="358.335"/>
				
					<line id="rect4215-8_3_" fill="#FFFFFF" stroke="#FFFFFF" stroke-width="4.6599" stroke-miterlimit="4.8" x1="255.667" y1="358.335" x2="255.667" y2="358.435"/>
			</g>
		</g>
	</g>
	<g>
		<path fill="#FFFFFF" d="M7.429-49.256l2.905-14.002c3.259,0.704,6.693,1.321,9.864,1.321c5.547-1.234,5.724-5.459,6.692-8.455
			c-1.937,0.616-4.139,0.882-6.34,0.882c-4.404,0-8.806-0.882-11.624-0.882c-17.437,0-24.042,8.984-24.042,18.319
			c0,5.019,2.642,6.781,7.573,6.781c-0.088-0.616-1.057-1.146-1.057-4.756c0-11.272,3.787-14.355,9.159-14.53L-9.568-17.551H0.56
			l5.724-26.51h10.304l1.144-5.195H7.429L7.429-49.256z"/>
		<path fill="#FFFFFF" d="M38.779-52.779l-4.844,22.634c-1.057,3.522-2.818,6.165-5.636,6.165c-1.497,0-2.114-1.234-2.114-2.907
			c0-0.616,0.088-1.233,0.265-1.938l5.019-23.955H21.343l-4.755,22.634c-0.354,1.673-0.617,3.171-0.617,4.58
			c0,5.899,3.346,8.454,7.573,8.454c2.995,0,6.868-0.969,10.392-6.694c0.44,4.316,2.994,6.694,6.957,6.694
			c3.875,0,10.216-1.585,14.179-13.034h-2.907c-1.056,3.522-2.994,6.165-5.724,6.165c-2.025,0-2.906-0.616-2.906-2.643
			c0-0.617,0.088-1.32,0.264-2.201l5.108-23.955H38.779L38.779-52.779z"/>
		<path fill="#FFFFFF" d="M59.737-65.46l-7.573,35.315c-0.352,1.673-0.528,3.171-0.528,4.58c0,5.899,3.259,8.454,7.485,8.454
			c3.875,0,10.832-1.585,14.794-13.034h-2.906c-1.057,3.522-3.61,6.165-6.339,6.165c-2.026,0-2.906-0.616-2.906-2.643
			c0-0.617,0.089-1.32,0.264-2.201l8.103-38.045L59.737-65.46L59.737-65.46z"/>
		<path fill="#FFFFFF" d="M77.967-62.465l-2.113,9.686h-2.377l-0.528,2.818h2.289l-4.228,19.816
			c-0.352,1.673-0.527,3.171-0.527,4.58c0,5.899,3.258,8.454,7.484,8.454c3.874,0,10.832-1.585,14.796-13.034h-2.908
			c-1.056,3.522-3.61,6.165-6.34,6.165c-2.025,0-2.905-0.616-2.905-2.643c0-0.617,0.088-1.32,0.263-2.201l4.493-21.137h4.227
			l0.615-2.818h-4.226l2.378-11.095L77.967-62.465L77.967-62.465z"/>
		<path fill="#FFFFFF" d="M108.173-53.396c-14.53,0-19.286,16.91-19.286,25.012c0,8.015,4.756,11.096,11.272,11.096
			c8.63,0,15.674-8.189,16.819-21.224c5.109-0.792,9.775-2.907,12.506-5.812l-0.706-1.938c-2.992,2.114-7.573,4.227-10.831,4.227
			c-0.176,0-0.439,0-0.792-0.087C117.155-49.519,114.25-53.396,108.173-53.396L108.173-53.396z M102.976-23.629
			c-2.641,0-3.61-1.056-3.61-5.723c0-6.87,4.404-19.727,9.424-19.727c1.762,0,2.466,1.056,2.643,4.052
			c-1.234,0.527-2.202,1.849-2.202,3.786c0,1.409,0.441,2.642,1.937,2.994C110.021-29.969,106.412-23.629,102.976-23.629
			L102.976-23.629z"/>
		<path fill="#FFFFFF" d="M141.107-43.091c0,4.491-3.171,13.21-3.171,17.966c0,4.051,1.675,8.014,7.134,8.014
			c3.698,0,7.046-2.201,7.751-7.311c-0.442,0.266-1.146,0.442-2.378,0.442c-2.113,0-2.819-1.234-2.819-2.994
			c0-3.876,3.436-12.417,3.436-18.143c0-5.636-3.348-7.926-7.838-7.926c-2.202,0-5.285,0.529-8.277,3.963l0.793-3.7h-10.129
			l-7.484,35.229h10.127l4.844-22.633c1.058-3.523,2.906-6.518,5.46-6.518C140.228-46.701,141.107-45.38,141.107-43.091
			L141.107-43.091z"/>
	</g>
</g>
</svg>
