<?xml version="1.0" encoding="iso-8859-1"?>
<!-- Generator: Adobe Illustrator 16.0.0, SVG Export Plug-In . SVG Version: 6.00 Build 0)  -->
<!DOCTYPE svg PUBLIC "-//W3C//DTD SVG 1.1//EN" "http://www.w3.org/Graphics/SVG/1.1/DTD/svg11.dtd">
<svg version="1.1" xmlns="http://www.w3.org/2000/svg" xmlns:xlink="http://www.w3.org/1999/xlink" x="0px" y="0px" width="512px"
	 height="512px" fill="white" viewBox="0 0 512 512" style="enable-background:new 0 0 512 512;" xml:space="preserve">
<g id="Guides_For_Artboard">
</g>
<g id="_x30_">
</g>
<g id="_x31_">
</g>
<g id="_x32_">
</g>
<g id="_x33_">
</g>
<g id="_x34_">
	<path d="M498.683,179.791c0-32.149-21.494-61.684-60.523-83.164c-36.688-20.191-86.162-31.312-139.307-31.312
		c-64.608,0-104.633,17.236-126.833,31.695c-28.652,18.663-45.759,44.761-45.759,69.813c0,24.52,13.971,47.865,38.329,64.049
		c25.71,17.082,62.43,26.111,106.188,26.111c73.164,0,117.898-11.046,140.782-34.761c11.421-11.836,17.141-26.979,16.54-43.789
		c-0.724-20.274-19.008-35.332-54.345-44.755c-24.766-6.604-56.429-10.125-86.87-9.658c-15.651,0.24-38.158,1.702-56.504,7.306
		c-28.51,8.708-36.245,24.068-36.302,35.414c-0.052,10.312,5.781,19.458,13.687,26.466c11.894,10.542,32.141,15.822,61.897,16.139
		c19.775,0.207,36.719-1.897,37.431-1.986c9.818-1.237,16.771-10.197,15.539-20.016c-1.232-9.82-10.202-16.785-20.013-15.555
		c-0.168,0.021-17.012,2.097-35.348,1.66c-19.479-0.461-32.973-1.246-32.973-5.394s13.455-7.408,28.445-9.147
		c18.526-2.149,43.215-2.12,65.167,0.167c68.237,8.625,65.318,27.577,55.833,35.833c-11.382,9.907-36.917,26.226-112.968,26.226
		c-71.34,0-108.666-27.321-108.666-54.309c0-22.895,40.109-65.657,136.74-65.657c98.088,0,163.979,40.654,163.979,78.624
		c0,23.866-9.019,42.721-28.676,58.753c-14.667,11.963-35.909,38.948-139.738,38.948l-6.978-0.043c-0.716,0-1.366,0.071-2.083,0.076
		H24.012c-5.85,0-10.58,4.731-10.58,10.573v169.46c0,5.844,4.73,10.575,10.58,10.575c0,0,65.692,0,76.834,0V353.333
		c0-8.951,7.261-16.206,16.201-16.206c8.954,0,16.213,7.255,16.213,16.206v114.801c13.803,0,27.39,0,40.509,0v-90.129
		c0-5.377,4.352-9.728,9.734-9.728c5.36,0,9.722,4.35,9.722,9.728v90.129c11.646,0,22.768,0,33.175,0v-90.129
		c0-5.377,4.353-9.728,9.734-9.728c5.36,0,9.723,4.35,9.723,9.728v90.129c12.956,0,24.22,0,33.326,0v-90.129
		c0-5.377,4.351-9.728,9.733-9.728c5.361,0,9.722,4.35,9.722,9.728v90.129c1.497,0,2.736,0,3.625,0
		c11.611,0.016,22.42-0.837,32.859-2.046V353.333c0-8.951,7.271-16.206,16.212-16.206s16.213,7.255,16.213,16.206v106.872
		c12.392-3.157,23.742-7.144,34.203-11.773v-75.527c0-5.377,4.363-9.728,9.736-9.728c5.371,0,9.722,4.351,9.722,9.728v65.685
		c12.697-7.369,23.818-15.54,33.174-24.156v-73.016c0-5.376,4.362-9.728,9.733-9.728c5.372,0,9.723,4.352,9.723,9.728v51.974
		c17.093-21.942,24.731-43.168,24.731-54.828C498.569,311.336,498.683,181.1,498.683,179.791z"/>
</g>
<g id="_x35_">
</g>
<g id="_x36_">
</g>
<g id="_x37_">
</g>
<g id="_x38_">
</g>
<g id="_x39_">
</g>
<g id="_x31_0">
</g>
<g id="_x31_1">
</g>
<g id="_x31_2">
</g>
<g id="_x31_3">
</g>
<g id="_x31_4">
</g>
<g id="_x31_5">
</g>
<g id="_x31_6">
</g>
<g id="_x31_7">
</g>
<g id="_x31_8">
</g>
<g id="_x31_9">
</g>
<g id="_x32_0">
</g>
<g id="_x32_1">
</g>
<g id="_x32_2">
</g>
<g id="_x32_3">
</g>
<g id="_x32_4">
</g>
<g id="_x32_5">
</g>
<g id="_x32_6">
</g>
<g id="_x32_7">
</g>
<g id="_x32_8">
</g>
<g id="_x32_9">
</g>
<g id="_x33_0">
</g>
<g id="_x33_1">
</g>
<g id="_x33_2">
</g>
<g id="_x33_3">
</g>
<g id="_x33_4">
</g>
<g id="_x33_5">
</g>
<g id="_x33_6">
</g>
<g id="_x33_7">
</g>
<g id="_x33_8">
</g>
<g id="_x33_9">
</g>
<g id="_x34_0">
</g>
<g id="_x34_1">
</g>
<g id="_x34_2">
</g>
<g id="_x34_3">
</g>
<g id="_x34_4">
</g>
<g id="_x34_5">
</g>
<g id="_x34_6">
</g>
<g id="_x34_7">
</g>
<g id="_x34_8">
</g>
<g id="_x34_9">
</g>
<g id="_x35_0">
</g>
<g id="_x35_1">
</g>
<g id="_x35_2">
</g>
<g id="_x35_3">
</g>
<g id="_x35_4">
</g>
<g id="_x35_5">
</g>
<g id="_x35_6">
</g>
<g id="_x35_7">
</g>
<g id="_x35_8">
</g>
<g id="_x35_9">
</g>
<g id="_x36_0">
</g>
<g id="_x36_1">
</g>
<g id="_x36_2">
</g>
<g id="_x36_3">
</g>
<g id="_x36_4">
</g>
<g id="_x36_5">
</g>
<g id="_x36_6">
</g>
<g id="_x36_7">
</g>
<g id="_x36_8">
</g>
<g id="_x36_9">
</g>
<g id="_x37_0">
</g>
</svg>
