<?xml version="1.0" encoding="iso-8859-1"?>
<!-- Generator: Adobe Illustrator 16.0.0, SVG Export Plug-In . SVG Version: 6.00 Build 0)  -->
<!DOCTYPE svg PUBLIC "-//W3C//DTD SVG 1.1//EN" "http://www.w3.org/Graphics/SVG/1.1/DTD/svg11.dtd">
<svg version="1.1" xmlns="http://www.w3.org/2000/svg" xmlns:xlink="http://www.w3.org/1999/xlink" x="0px" y="0px" width="512px"
	 height="512px" fill="white" viewBox="0 0 512 512" style="enable-background:new 0 0 512 512;" xml:space="preserve">
<g id="Guides_For_Artboard">
</g>
<g id="_x30_">
</g>
<g id="_x31_">
</g>
<g id="_x32_">
</g>
<g id="_x33_">
</g>
<g id="_x34_">
</g>
<g id="_x35_">
</g>
<g id="_x36_">
</g>
<g id="_x37_">
</g>
<g id="_x38_">
</g>
<g id="_x39_">
</g>
<g id="_x31_0">
</g>
<g id="_x31_1">
</g>
<g id="_x31_2">
</g>
<g id="_x31_3">
</g>
<g id="_x31_4">
</g>
<g id="_x31_5">
</g>
<g id="_x31_6">
</g>
<g id="_x31_7">
</g>
<g id="_x31_8">
</g>
<g id="_x31_9">
</g>
<g id="_x32_0">
</g>
<g id="_x32_1">
</g>
<g id="_x32_2">
</g>
<g id="_x32_3">
</g>
<g id="_x32_4">
</g>
<g id="_x32_5">
</g>
<g id="_x32_6">
</g>
<g id="_x32_7">
</g>
<g id="_x32_8">
</g>
<g id="_x32_9">
</g>
<g id="_x33_0">
</g>
<g id="_x33_1">
</g>
<g id="_x33_2">
</g>
<g id="_x33_3">
</g>
<g id="_x33_4">
</g>
<g id="_x33_5">
</g>
<g id="_x33_6">
</g>
<g id="_x33_7">
</g>
<g id="_x33_8">
</g>
<g id="_x33_9">
</g>
<g id="_x34_0">
</g>
<g id="_x34_1">
</g>
<g id="_x34_2">
</g>
<g id="_x34_3">
</g>
<g id="_x34_4">
</g>
<g id="_x34_5">
	<path d="M491.581,104.291l-73.519-80.738c-3.895-4.275-9.486-6.576-15.227-6.313H256H109.16c-5.75-0.264-11.33,2.037-15.223,6.313
		l-73.519,80.738c-5.827,6.4-6.709,15.887-2.161,23.252l119.841,194.025c-5.69,14.404-8.817,30.1-8.817,46.525
		c0,69.965,56.717,126.686,126.686,126.686c0.011,0,0.022,0,0.033,0s0.022,0,0.033,0c69.969,0,126.686-56.721,126.686-126.686
		c0-16.426-3.127-32.121-8.816-46.523l119.84-194.027C498.29,120.178,497.408,110.691,491.581,104.291z M329.585,120.953
		L256.146,241.41c-0.037,0-0.075-0.002-0.113-0.002c-0.011,0-0.022,0-0.033,0s-0.022,0-0.033,0c-0.038,0-0.076,0.002-0.113,0.002
		l-73.438-120.457H256H329.585z M58.944,119.598l46.248-50.789L214.63,248.313c-20.992,7.244-39.481,19.85-53.838,36.18
		L58.944,119.598z M338.93,358.678l-33.626,32.777l7.938,46.283c0.651,3.797-0.909,7.633-4.026,9.896
		c-1.762,1.281-3.85,1.934-5.948,1.934c-1.61,0-3.228-0.385-4.708-1.164l-41.563-21.852l-41.563,21.852
		c-3.41,1.795-7.542,1.496-10.656-0.77c-3.117-2.264-4.678-6.1-4.026-9.896l7.938-46.283l-33.626-32.777
		c-2.758-2.688-3.751-6.709-2.56-10.373c1.189-3.662,4.356-6.332,8.168-6.887l46.471-6.752l20.782-42.109
		c1.703-3.453,5.222-5.641,9.073-5.641s7.37,2.188,9.073,5.641l20.783,42.109l46.47,6.752c3.812,0.555,6.979,3.225,8.169,6.887
		C342.68,351.969,341.688,355.99,338.93,358.678z M351.209,284.492c-14.356-16.33-32.847-28.936-53.839-36.18L406.808,68.809
		l46.248,50.789L351.209,284.492z"/>
</g>
<g id="_x34_6">
</g>
<g id="_x34_7">
</g>
<g id="_x34_8">
</g>
<g id="_x34_9">
</g>
<g id="_x35_0">
</g>
<g id="_x35_1">
</g>
<g id="_x35_2">
</g>
<g id="_x35_3">
</g>
<g id="_x35_4">
</g>
<g id="_x35_5">
</g>
<g id="_x35_6">
</g>
<g id="_x35_7">
</g>
<g id="_x35_8">
</g>
<g id="_x35_9">
</g>
<g id="_x36_0">
</g>
<g id="_x36_1">
</g>
<g id="_x36_2">
</g>
<g id="_x36_3">
</g>
<g id="_x36_4">
</g>
<g id="_x36_5">
</g>
<g id="_x36_6">
</g>
<g id="_x36_7">
</g>
<g id="_x36_8">
</g>
<g id="_x36_9">
</g>
<g id="_x37_0">
</g>
</svg>
